<mxfile host="app.diagrams.net" modified="2023-06-07T08:38:48.314Z" agent="Mozilla/5.0 (Windows NT 10.0; Win64; x64) AppleWebKit/537.36 (KHTML, like Gecko) Chrome/114.0.0.0 Safari/537.36" version="21.2.3" etag="a8GGd38vcii2dirNjyG8" type="github">
  <diagram name="Page-1" id="wwc_ugL6CnE_FnN0O1Lz">
    <mxGraphModel>
      <root>
        <mxCell id="0" />
        <mxCell id="1" parent="0" />
      </root>
    </mxGraphModel>
  </diagram>
</mxfile>
